sfk_cyclingleg_states
version=1
nRows=13
nColumns=49
inDegrees=yes

# SIMM Motion File Header:
name sfk_cyclingleg_states
datacolumns 49
datarows 13
otherdata 1
range 0.24744689 0.25641624
endheader
time	/jointset/bb/crank_angle/value	/jointset/bb/crank_angle/speed	/jointset/spindle/pedal_angle_r/value	/jointset/spindle/pedal_angle_r/speed	/jointset/ground_pelvis/pelvis_tilt/value	/jointset/ground_pelvis/pelvis_tilt/speed	/jointset/ground_pelvis/pelvis_list/value	/jointset/ground_pelvis/pelvis_list/speed	/jointset/ground_pelvis/pelvis_rotation/value	/jointset/ground_pelvis/pelvis_rotation/speed	/jointset/ground_pelvis/pelvis_tx/value	/jointset/ground_pelvis/pelvis_tx/speed	/jointset/ground_pelvis/pelvis_ty/value	/jointset/ground_pelvis/pelvis_ty/speed	/jointset/ground_pelvis/pelvis_tz/value	/jointset/ground_pelvis/pelvis_tz/speed	/jointset/hip_r/hip_angle_r/value	/jointset/hip_r/hip_angle_r/speed	/jointset/hip_r/hip_adduction_r/value	/jointset/hip_r/hip_adduction_r/speed	/jointset/hip_r/hip_rotation_r/value	/jointset/hip_r/hip_rotation_r/speed	/jointset/knee_r/knee_angle_r/value	/jointset/knee_r/knee_angle_r/speed	/jointset/knee_r/tib_tx_r/value	/jointset/knee_r/tib_tx_r/speed	/jointset/knee_r/tib_ty_r/value	/jointset/knee_r/tib_ty_r/speed	/jointset/tib_pat_r/pat_angle_r/value	/jointset/tib_pat_r/pat_angle_r/speed	/jointset/tib_pat_r/pat_tx_r/value	/jointset/tib_pat_r/pat_tx_r/speed	/jointset/tib_pat_r/pat_ty_r/value	/jointset/tib_pat_r/pat_ty_r/speed	/jointset/ankle_r/ankle_angle_r/value	/jointset/ankle_r/ankle_angle_r/speed	/jointset/subtalar_r/subtalar_angle_r/value	/jointset/subtalar_r/subtalar_angle_r/speed	/jointset/mtp_r/mtp_angle_r/value	/jointset/mtp_r/mtp_angle_r/speed	/forceset/bifemlh_r/activation	/forceset/bifemlh_r/fiber_length	/forceset/bifemsh_r/activation	/forceset/bifemsh_r/fiber_length	/forceset/glut_max2_r/activation	/forceset/glut_max2_r/fiber_length	/forceset/vas_int_r/activation	/forceset/vas_int_r/fiber_length
      0.24744689	   -128.94368976	   -480.13863232	    146.84312274	    561.36862573	      0.00000000	      0.00000000	      0.00000000	     -0.00000000	     -0.00000000	     -0.00000000	     -0.00000000	     -0.00000000	      0.00000000	      0.00000000	     -0.00000000	     -0.00000000	     45.59180067	   -222.58545692	      4.37286315	     -0.60251283	      1.58273002	     24.33656194	    -50.31068424	    265.00356131	      0.00388886	     -0.03163070	     -0.47313530	      0.07329938	     17.09194214	    -11.66957559	      0.04558967	      0.07321505	     -0.02328763	     -0.01027536	     23.02607774	     38.63499902	      0.00000000	     -0.00000000	      0.00000000	     -0.00000000	     -0.00641670	      0.12972127	     -0.00641670	      0.17169922	     -0.00641670	      0.13516005	     -0.00641670	      0.12229215
      0.24826251	   -129.33529940	   -480.13863232	    147.30087437	    561.09491719	      0.00000000	      0.00000000	      0.00000000	     -0.00000000	     -0.00000000	     -0.00000000	     -0.00000000	     -0.00000000	      0.00000000	      0.00000000	     -0.00000000	     -0.00000000	     45.41039932	   -222.23126229	      4.37236777	     -0.61220276	      1.60257601	     24.32801441	    -50.09496030	    263.97494472	      0.00386302	     -0.03174007	     -0.47307572	      0.07281994	     17.08237477	    -11.79053462	      0.04564922	      0.07280780	     -0.02329600	     -0.01025534	     23.05775627	     39.04408741	      0.00000000	     -0.00000000	      0.00000000	     -0.00000000	     -0.00652171	      0.12965683	     -0.00652171	      0.17179710	     -0.00652171	      0.13502795	     -0.00652171	      0.12211910
      0.24899612	   -129.68753316	   -480.13863232	    147.71240418	    560.83620956	      0.00000000	      0.00000000	      0.00000000	     -0.00000000	     -0.00000000	     -0.00000000	     -0.00000000	     -0.00000000	      0.00000000	      0.00000000	     -0.00000000	     -0.00000000	     45.24748984	   -221.89839557	      4.37191551	     -0.62072869	      1.62041988	     24.31854238	    -49.90165243	    263.02697543	      0.00383970	     -0.03183060	     -0.47302245	      0.07238353	     17.07368574	    -11.89765893	      0.04570250	      0.07243627	     -0.02330352	     -0.01023653	     23.08653307	     39.40800221	      0.00000000	     -0.00000000	      0.00000000	     -0.00000000	     -0.00661617	      0.12959873	     -0.00661617	      0.17196016	     -0.00661617	      0.13490909	     -0.00661617	      0.12196381
      0.24972972	   -130.03976691	   -480.13863232	    148.12373969	    560.56511055	      0.00000000	      0.00000000	      0.00000000	     -0.00000000	     -0.00000000	     -0.00000000	     -0.00000000	     -0.00000000	      0.00000000	      0.00000000	     -0.00000000	     -0.00000000	     45.08482963	   -221.55165892	      4.37145707	     -0.62906961	      1.63825615	     24.30729377	    -49.70904810	    262.05681281	      0.00381632	     -0.03191363	     -0.47296951	      0.07194211	     17.06491873	    -12.00310426	      0.04575550	      0.07205966	     -0.02331102	     -0.01021692	     23.11557536	     39.76783487	      0.00000000	     -0.00000000	      0.00000000	     -0.00000000	     -0.00671062	      0.12954049	     -0.00671062	      0.17202208	     -0.00671062	      0.13479019	     -0.00671062	      0.12180890
      0.25040765	   -130.36526690	   -480.13863232	    148.50367497	    560.30310581	      0.00000000	      0.00000000	      0.00000000	     -0.00000000	     -0.00000000	     -0.00000000	     -0.00000000	     -0.00000000	      0.00000000	      0.00000000	     -0.00000000	     -0.00000000	     44.93474550	   -221.21861259	      4.37102804	     -0.63660838	      1.65473078	     24.29524352	    -49.53170179	    261.14001473	      0.00379466	     -0.03198363	     -0.47292088	      0.07152965	     17.05674890	    -12.09897188	      0.04580424	      0.07170700	     -0.02331794	     -0.01019805	     23.14264676	     40.09650376	      0.00000000	     -0.00000000	      0.00000000	     -0.00000000	     -0.00679790	      0.12948656	     -0.00679790	      0.17214161	     -0.00679790	      0.13468029	     -0.00679790	      0.12166608
      0.25121093	   -130.75095283	   -480.13863232	    148.95362587	    559.97775695	      0.00000000	      0.00000000	      0.00000000	     -0.00000000	     -0.00000000	     -0.00000000	     -0.00000000	     -0.00000000	      0.00000000	      0.00000000	     -0.00000000	     -0.00000000	     44.75720871	   -220.80789164	      4.37051315	     -0.64532476	      1.67424023	     24.27880499	    -49.32237796	    260.02777889	      0.00376894	     -0.03205809	     -0.47286362	      0.07103516	     17.04698508	    -12.21049919	      0.04586167	      0.07128321	     -0.02332613	     -0.01017473	     23.17501024	     40.48085178	      0.00000000	     -0.00000000	      0.00000000	     -0.00000000	     -0.00690132	      0.12942251	     -0.00690132	      0.17225023	     -0.00690132	      0.13455005	     -0.00690132	      0.12149730
      0.25201421	   -131.13663875	   -480.13863232	    149.40330870	    559.63552149	      0.00000000	      0.00000000	      0.00000000	     -0.00000000	     -0.00000000	     -0.00000000	     -0.00000000	     -0.00000000	      0.00000000	      0.00000000	     -0.00000000	     -0.00000000	     44.58000901	   -220.37925684	      4.36999135	     -0.65379949	      1.69373550	     24.25990435	    -49.11395913	    258.88659659	      0.00374316	     -0.03212327	     -0.47280676	      0.07053429	     17.03713262	    -12.31965952	      0.04591875	      0.07085283	     -0.02333429	     -0.01015033	     23.20768013	     40.85932184	      0.00000000	     -0.00000000	      0.00000000	     -0.00000000	     -0.00700475	      0.12935831	     -0.00700475	      0.17236683	     -0.00700475	      0.13441981	     -0.00700475	      0.12132901
      0.25259065	   -131.41340733	   -480.13863232	    149.72582858	    559.37908028	      0.00000000	      0.00000000	      0.00000000	     -0.00000000	     -0.00000000	     -0.00000000	     -0.00000000	     -0.00000000	      0.00000000	      0.00000000	     -0.00000000	     -0.00000000	     44.45306621	   -220.06034790	      4.36961276	     -0.65972783	      1.70771545	     24.24475073	    -48.96496847	    258.04933462	      0.00372463	     -0.03216426	     -0.47276621	      0.07017085	     17.03000894	    -12.39645810	      0.04595951	      0.07053981	     -0.02334014	     -0.01013211	     23.23131019	     41.12707154	      0.00000000	     -0.00000000	      0.00000000	     -0.00000000	     -0.00707896	      0.12931214	     -0.00707896	      0.17246852	     -0.00707896	      0.13432634	     -0.00707896	      0.12120856
      0.25339263	   -131.79846824	   -480.13863232	    150.17429051	    559.00656917	      0.00000000	      0.00000000	      0.00000000	     -0.00000000	     -0.00000000	     -0.00000000	     -0.00000000	     -0.00000000	      0.00000000	      0.00000000	     -0.00000000	     -0.00000000	     44.27676564	   -219.60051861	      4.36908044	     -0.66775684	      1.72715002	     24.22135093	    -48.75849398	    256.85823475	      0.00369881	     -0.03221313	     -0.47271014	      0.06965949	     17.02002513	    -12.50106295	      0.04601590	      0.07009834	     -0.02334825	     -0.01010575	     23.26444078	     41.49392809	      0.00000000	     -0.00000000	      0.00000000	     -0.00000000	     -0.00718222	      0.12924777	     -0.00718222	      0.17257783	     -0.00718222	      0.13419632	     -0.00718222	      0.12104145
      0.25419461	   -132.18352915	   -480.13863232	    150.62244609	    558.61496878	      0.00000000	      0.00000000	      0.00000000	     -0.00000000	     -0.00000000	     -0.00000000	     -0.00000000	     -0.00000000	      0.00000000	      0.00000000	     -0.00000000	     -0.00000000	     44.10084153	   -219.12141917	      4.36854178	     -0.67552390	      1.74656470	     24.19512598	    -48.55298726	    255.63571364	      0.00367296	     -0.03225243	     -0.47265448	      0.06914135	     17.00995851	    -12.60292629	      0.04607194	      0.06964974	     -0.02335634	     -0.01007815	     23.29786281	     41.85381459	      0.00000000	     -0.00000000	      0.00000000	     -0.00000000	     -0.00728547	      0.12918324	     -0.00728547	      0.17269913	     -0.00728547	      0.13406632	     -0.00728547	      0.12087490
      0.25521523	   -132.67357006	   -480.13863232	    151.19231552	    558.08757168	      0.00000000	      0.00000000	      0.00000000	     -0.00000000	     -0.00000000	     -0.00000000	     -0.00000000	     -0.00000000	      0.00000000	      0.00000000	     -0.00000000	     -0.00000000	     43.87752403	   -218.48294595	      4.36784744	     -0.68501674	      1.77124001	     24.15743028	    -48.29289277	    254.03284280	      0.00364003	     -0.03228837	     -0.47258425	      0.06847186	     16.99703124	    -12.72835920	      0.04614273	      0.06906816	     -0.02336661	     -0.01004116	     23.34080909	     42.30102792	      0.00000000	     -0.00000000	      0.00000000	      0.00000000	     -0.00741688	      0.12910090	     -0.00741688	      0.17284229	     -0.00741688	      0.13390094	     -0.00741688	      0.12066378
      0.25575960	   -132.93494243	   -480.13863232	    151.49604094	    557.79236055	      0.00000000	      0.00000000	      0.00000000	     -0.00000000	     -0.00000000	     -0.00000000	     -0.00000000	     -0.00000000	      0.00000000	      0.00000000	     -0.00000000	     -0.00000000	     43.75868473	   -218.12885202	      4.36747321	     -0.68989499	      1.78438459	     24.13524376	    -48.15484331	    253.15567972	      0.00362244	     -0.03230101	     -0.47254708	      0.06811004	     16.99008460	    -12.79323549	      0.04618024	      0.06875292	     -0.02337207	     -0.01002054	     23.36390011	     42.53430747	      0.00000000	     -0.00000000	      0.00000000	      0.00000000	     -0.00748696	      0.12905688	     -0.00748696	      0.17295336	     -0.00748696	      0.13381277	     -0.00748696	      0.12055158
      0.25641624	   -133.25022145	   -480.13863232	    151.86219012	    557.42282368	      0.00000000	      0.00000000	      0.00000000	     -0.00000000	     -0.00000000	     -0.00000000	     -0.00000000	     -0.00000000	      0.00000000	      0.00000000	     -0.00000000	     -0.00000000	     43.61559594	   -217.68883659	      4.36701831	     -0.69560325	      1.80022346	     24.10646264	    -47.98896382	    252.07638996	      0.00360123	     -0.03231014	     -0.47250250	      0.06766910	     16.98165886	    -12.86952590	      0.04622526	      0.06836786	     -0.02337864	     -0.00999479	     23.39192092	     42.81055879	      0.00000000	     -0.00000000	      0.00000000	      0.00000000	     -0.00757151	      0.12900369	     -0.00757151	      0.17302466	     -0.00757151	      0.13370644	     -0.00757151	      0.12041663
